<svg width="1024" height="1024" viewBox="0 0 1024 1024" fill="none" xmlns="http://www.w3.org/2000/svg">
<path d="M893.334 -0.000118143L5.48608 129.551L136.153 1009.79L1024 880.24L893.334 -0.000118143Z" fill="#E6E7E8"/>
<path d="M123.488 20.2599L0 901.567L888.925 1024L1012.41 142.693L123.488 20.2599Z" fill="#EA9494"/>
<path d="M976.631 709.361L806.053 909.985L108.608 968.839L38.3044 150.027L922.198 75.4249L976.631 709.361Z" fill="#F9DA58"/>
<path d="M922.184 75.476L38.2817 150.058L55.1494 346.558L939.052 271.975L922.184 75.476Z" fill="#FCE68D"/>
<path d="M852.153 353.269L158.206 411.823L160.107 433.976L854.055 375.422L852.153 353.269Z" fill="white"/>
<path d="M860.811 454.357L166.864 512.911L168.765 535.065L862.712 476.511L860.811 454.357Z" fill="white"/>
<path d="M869.483 555.391L175.536 613.945L177.437 636.098L871.385 577.544L869.483 555.391Z" fill="white"/>
<path d="M878.147 656.469L184.188 715.024L186.09 737.177L880.049 678.622L878.147 656.469Z" fill="white"/>
<path d="M886.847 757.476L192.911 816.029L194.813 838.182L888.748 779.629L886.847 757.476Z" fill="white"/>
<path d="M790.16 725.097L806.054 909.985L976.632 709.361L790.16 725.097Z" fill="#FCE68D"/>
</svg>
